<svg width="60" height="60" viewBox="0 0 60 60" fill="none" xmlns="http://www.w3.org/2000/svg">
<rect width="60" height="60" rx="30" fill="currentColor"/>
<path d="M30 22.7905C32.9797 22.7905 35.3952 20.375 35.3952 17.3953C35.3952 14.4155 32.9797 12 30 12C27.0203 12 24.6047 14.4155 24.6047 17.3953C24.6047 20.375 27.0203 22.7905 30 22.7905Z" fill="white"/>
<path d="M46.7852 26.3873H13.2148C12.0158 26.3873 11.5362 27.886 12.5553 28.5454L21.3076 34.1805C21.7273 34.4802 21.9671 35.0198 21.7872 35.4993L18.4901 46.4697C18.1304 47.6686 19.6891 48.5079 20.5883 47.6087L29.1008 38.6166C29.5804 38.0771 30.4196 38.0771 30.8992 38.6166L39.4117 47.6087C40.251 48.5079 41.8096 47.6686 41.5099 46.4697L38.2128 35.4993C38.0929 35.0198 38.2727 34.4802 38.6924 34.1805L47.4447 28.5454C48.4638 27.886 47.9842 26.3873 46.7852 26.3873Z" fill="white"/>
</svg>
