<svg width="24" height="24" viewBox="0 0 24 24" fill="none" xmlns="http://www.w3.org/2000/svg">
<g clip-path="url(#clip0_45_792)">
<path d="M20.6673 5.33398H15.334V6.66732H20.6673V20.6673H15.334V22.0007H22.0007V6.66732C22.0007 6.3137 21.8602 5.97456 21.6101 5.72451C21.3601 5.47446 21.0209 5.33398 20.6673 5.33398Z" fill="white"/>
<path d="M13.2527 2H4.07935C3.70451 2 3.34502 2.1489 3.07997 2.41396C2.81492 2.67901 2.66602 3.03849 2.66602 3.41333V22H14.666V3.41333C14.666 3.03849 14.5171 2.67901 14.2521 2.41396C13.987 2.1489 13.6275 2 13.2527 2ZM13.3327 20.6667H11.3327V18.6667H5.99935V20.6667H3.99935V3.41333C3.99935 3.40283 4.00142 3.39242 4.00544 3.38272C4.00946 3.37301 4.01535 3.36419 4.02278 3.35676C4.03021 3.34934 4.03903 3.34344 4.04873 3.33942C4.05844 3.3354 4.06884 3.33333 4.07935 3.33333H13.2527C13.2632 3.33333 13.2736 3.3354 13.2833 3.33942C13.293 3.34344 13.3018 3.34934 13.3093 3.35676C13.3167 3.36419 13.3226 3.37301 13.3266 3.38272C13.3306 3.39242 13.3327 3.40283 13.3327 3.41333V20.6667Z" fill="white"/>
<path d="M5.33398 5.33398H6.66732V6.66732H5.33398V5.33398Z" fill="white"/>
<path d="M8 5.33398H9.33333V6.66732H8V5.33398Z" fill="white"/>
<path d="M10.666 5.33398H11.9993V6.66732H10.666V5.33398Z" fill="white"/>
<path d="M5.33398 8.66602H6.66732V9.99935H5.33398V8.66602Z" fill="white"/>
<path d="M8 8.66602H9.33333V9.99935H8V8.66602Z" fill="white"/>
<path d="M10.666 8.66602H11.9993V9.99935H10.666V8.66602Z" fill="white"/>
<path d="M5.33398 12H6.66732V13.3333H5.33398V12Z" fill="white"/>
<path d="M8 12H9.33333V13.3333H8V12Z" fill="white"/>
<path d="M10.666 12H11.9993V13.3333H10.666V12Z" fill="white"/>
<path d="M5.33398 15.334H6.66732V16.6673H5.33398V15.334Z" fill="white"/>
<path d="M8 15.334H9.33333V16.6673H8V15.334Z" fill="white"/>
<path d="M10.666 15.334H11.9993V16.6673H10.666V15.334Z" fill="white"/>
<path d="M15.334 8.66602H16.6673V9.99935H15.334V8.66602Z" fill="white"/>
<path d="M18 8.66602H19.3333V9.99935H18V8.66602Z" fill="white"/>
<path d="M15.334 12H16.6673V13.3333H15.334V12Z" fill="white"/>
<path d="M18 12H19.3333V13.3333H18V12Z" fill="white"/>
<path d="M15.334 15.334H16.6673V16.6673H15.334V15.334Z" fill="white"/>
<path d="M18 15.334H19.3333V16.6673H18V15.334Z" fill="white"/>
</g>
<defs>
<clipPath id="clip0_45_792">
<rect width="24" height="24" fill="white"/>
</clipPath>
</defs>
</svg>
