<svg width="24" height="24" viewBox="0 0 24 24" fill="none" xmlns="http://www.w3.org/2000/svg">
<rect x="0.25" y="0.25" width="23.5" height="23.5" rx="4.75" stroke="#3C77FF" stroke-width="0.5"/>
<path d="M16.5667 8.37565C15.862 7.46024 14.9058 6.77007 13.815 6.38959C12.7242 6.0091 11.5462 5.9548 10.4251 6.23331C9.30393 6.51183 8.28827 7.1111 7.50236 7.95779C6.71645 8.80449 6.19437 9.8619 6 11.0007M16.8583 5.33398V8.66732H13.525M7.14833 15.6257C7.85281 16.5414 8.80901 17.2319 9.89987 17.6126C10.9907 17.9933 12.1689 18.0478 13.2902 17.7692C14.4115 17.4906 15.4273 16.8912 16.2132 16.0443C16.9991 15.1973 17.521 14.1396 17.715 13.0007M6.8575 18.6673V15.334H10.1908" stroke="#5C9CFF" stroke-width="3" stroke-linecap="round" stroke-linejoin="round"/>
</svg>
